<svg width="512" height="512" viewBox="0 0 512 512" fill="none" xmlns="http://www.w3.org/2000/svg">
    <defs>
        <linearGradient id="blade-white" x1="0%" y1="0%" x2="100%" y2="100%">
            <stop offset="0%" style="stop-color:#ffffff;stop-opacity:1" />
            <stop offset="100%" style="stop-color:#d1d1d1;stop-opacity:1" />
        </linearGradient>
        <linearGradient id="energy-glow" x1="50%" y1="0%" x2="50%" y2="100%">
            <stop offset="0%" style="stop-color:#ffffff;stop-opacity:1" />
            <stop offset="100%" style="stop-color:#e0e0e0;stop-opacity:1" />
        </linearGradient>
    </defs>

    <g id="Fiction-Logo-F">
        <path d="M160 96 L200 128 L200 384 L140 448 L120 416 L160 96Z" fill="#0f0f19"/>
        <path d="M210 160 L360 160 L390 190 L250 210 L210 160Z" fill="#0f0f19"/>
        <path d="M210 260 L320 260 L340 285 L230 310 L210 260Z" fill="#0f0f19"/>

        <path d="M145 64 L185 96 L175 400 L110 464 L90 432 L145 64Z" fill="url(#blade-white)"/>
        <path d="M195 135 L384 128 L424 168 L280 192 L195 135Z" fill="url(#blade-white)"/>
        <path d="M195 245 L340 240 L368 272 L260 296 L195 245Z" fill="url(#blade-white)"/>

        <path d="M135 56 L175 88 L165 410 L135 56Z" fill="url(#energy-glow)"/>
        <path d="M190 125 L390 118 L435 163 L424 168 L384 128 L195 135 L190 125Z" fill="url(#energy-glow)"/>
        <path d="M190 235 L345 230 L375 265 L368 272 L340 240 L195 245 L190 235Z" fill="url(#energy-glow)"/>
        
        <path d="M180 210 L240 200 L185 225 L180 210Z" fill="#ffffff"/>
    </g>
</svg>